<svg width="480" height="534" viewBox="0 0 480 534" fill="none" xmlns="http://www.w3.org/2000/svg">
<path d="M10.2186 8.68933C3.44894 16.8115 0.025476 27.2063 0.643916 37.7617V496.304C0.0604701 506.855 3.47981 517.237 10.2186 525.377L11.7854 526.943L268.562 269.992V263.899L11.7854 7.12256L10.2186 8.68933Z" fill="url(#paint0_linear_58_90)"/>
<path d="M354.213 355.643L268.562 269.993V263.9L354.213 178.423L356.128 179.468L457.62 237.09C486.692 253.454 486.692 280.438 457.62 296.976L356.128 354.598L354.213 355.643Z" fill="url(#paint1_linear_58_90)"/>
<path d="M356.128 354.598L269.085 267.555L10.2186 525.377C16.1855 530.282 23.6142 533.064 31.3356 533.285C39.057 533.505 46.6325 531.152 52.8697 526.595L355.605 354.598" fill="url(#paint2_linear_58_90)"/>
<path d="M356.128 179.468L52.8697 7.29671C46.6994 2.55289 39.0736 0.098376 31.2947 0.352382C23.5158 0.606387 16.0663 3.55316 10.2186 8.6894L268.562 267.033L356.128 179.468Z" fill="url(#paint3_linear_58_90)"/>
<path opacity="0.1" d="M354.213 352.683L52.8697 523.636C46.8587 528.115 39.5627 530.534 32.0665 530.534C24.5702 530.534 17.2742 528.115 11.2632 523.636L9.69641 525.203L11.2632 526.769C17.2742 531.248 24.5702 533.668 32.0665 533.668C39.5627 533.668 46.8587 531.248 52.8697 526.769L355.605 354.772L354.213 352.683Z" fill="black"/>
<path opacity="0.07" d="M10.2186 522.591C3.46848 514.39 0.0505412 503.95 0.643855 493.345V496.304C0.0604092 506.855 3.47975 517.237 10.2186 525.377L11.7854 523.81L10.2186 522.591Z" fill="black"/>
<path opacity="0.07" d="M457.62 293.842L354.213 352.683L356.127 354.598L457.62 296.279C463.573 293.662 468.724 289.51 472.547 284.249C476.371 278.989 478.729 272.807 479.38 266.337C478.193 272.318 475.6 277.931 471.817 282.713C468.033 287.496 463.167 291.31 457.62 293.842Z" fill="black"/>
<path opacity="0.3" d="M52.8697 10.4303L457.62 240.05C463.113 242.519 467.947 246.25 471.728 250.939C475.509 255.627 478.131 261.141 479.38 267.033C478.764 260.552 476.42 254.354 472.592 249.088C468.765 243.821 463.594 239.678 457.62 237.09L52.8697 7.29675C24.3196 -9.06733 0.643921 4.51138 0.643921 37.7618V40.7213C0.643921 7.64492 24.3196 -6.10787 52.8697 10.4303Z" fill="white"/>
<defs>
<linearGradient id="paint0_linear_58_90" x1="245.931" y1="32.8873" x2="-102.067" y2="380.885" gradientUnits="userSpaceOnUse">
<stop stop-color="#008EFF"/>
<stop offset="0.01" stop-color="#008FFF"/>
<stop offset="0.26" stop-color="#00ACFF"/>
<stop offset="0.51" stop-color="#00C0FF"/>
<stop offset="0.76" stop-color="#00CDFF"/>
<stop offset="1" stop-color="#00D1FF"/>
</linearGradient>
<linearGradient id="paint1_linear_58_90" x1="461.101" y1="267.033" x2="-40.6144" y2="267.033" gradientUnits="userSpaceOnUse">
<stop stop-color="#FFD800"/>
<stop offset="1" stop-color="#FF8A00"/>
</linearGradient>
<linearGradient id="paint2_linear_58_90" x1="308.602" y1="314.558" x2="-163.171" y2="786.331" gradientUnits="userSpaceOnUse">
<stop stop-color="#FF3A44"/>
<stop offset="1" stop-color="#B11162"/>
</linearGradient>
<linearGradient id="paint3_linear_58_90" x1="-54.8895" y1="-143.984" x2="155.929" y2="66.66" gradientUnits="userSpaceOnUse">
<stop stop-color="#328E71"/>
<stop offset="0.07" stop-color="#2D9571"/>
<stop offset="0.48" stop-color="#15BD74"/>
<stop offset="0.8" stop-color="#06D575"/>
<stop offset="1" stop-color="#00DE76"/>
</linearGradient>
</defs>
</svg>
