<svg width="213" height="70" viewBox="0 0 213 70" fill="none" xmlns="http://www.w3.org/2000/svg">
<g clip-path="url(#clip0)">
<path d="M66.664 57.0081C63.8106 56.3486 61.5893 55.5119 60 54.4981L64.5742 45.7094C66.3885 46.797 68.3547 47.6099 70.4085 48.1217C72.5699 48.7035 74.7979 49.0032 77.0366 49.0132C80.8815 49.0132 82.804 48.1543 82.804 46.4364C82.804 45.7309 82.3513 45.2128 81.4458 44.8823C80.5404 44.5517 79.093 44.2339 77.1036 43.9288C74.8957 43.5521 72.7144 43.0338 70.5735 42.377C68.8712 41.8265 67.3335 40.8614 66.0997 39.569C64.8245 38.2469 64.1868 36.3964 64.1868 34.0174C64.1868 29.8762 65.9658 26.6709 69.5238 24.4017C73.0817 22.1324 77.6878 20.9985 83.342 21C85.8374 20.9932 88.3266 21.2473 90.7688 21.7581C92.9256 22.1882 95.0192 22.8882 97 23.8415L92.5478 32.6254C89.5429 30.8185 85.9858 29.9151 81.8762 29.9151C79.9299 29.9151 78.4825 30.1686 77.534 30.6755C76.5855 31.1824 76.1073 31.8324 76.0993 32.6254C76.0993 33.3309 76.552 33.8482 77.4575 34.1771C78.3629 34.5061 79.8597 34.87 81.948 35.2689C84.1152 35.6145 86.2533 36.1221 88.3442 36.7873C90.0361 37.3561 91.5612 38.332 92.7845 39.6286C94.0438 40.9508 94.6735 42.7576 94.6735 45.0491C94.6735 49.1904 92.8841 52.3837 89.3054 54.6292C85.7267 56.8746 81.1525 57.9981 75.5828 58C72.5816 58.0114 69.589 57.6786 66.664 57.0081Z" fill="white"/>
<path d="M144 21.5917L134.237 70H121.634L124.745 54.6066C122.049 56.7565 118.865 57.8307 115.192 57.8291C112.576 57.8398 110.003 57.1706 107.729 55.888C105.375 54.5641 103.436 52.6212 102.125 50.2736C100.708 47.8184 100 44.9242 100 41.591C100 37.7326 100.877 34.2348 102.632 31.0978C104.293 28.0497 106.743 25.4952 109.729 23.6965C112.674 21.911 116.063 20.9773 119.514 21.0004C125.131 21.0004 128.934 22.8644 130.923 26.5915L131.983 21.5917H144ZM114.568 45.9643C115.783 47.173 117.453 47.7765 119.576 47.7749C122.095 47.7749 124.151 46.8534 125.745 45.0104C127.338 43.1674 128.136 40.7779 128.138 37.8417C128.138 35.7345 127.529 34.0679 126.312 32.8419C125.095 31.6159 123.425 31.0013 121.304 30.9981C118.785 30.9981 116.729 31.9196 115.135 33.7626C113.541 35.6056 112.744 38.0173 112.742 40.9977C112.744 43.1033 113.352 44.7589 114.568 45.9643Z" fill="white"/>
<path d="M146 57H158.725L166 21H153.272L146 57Z" fill="white"/>
<path d="M167.053 5.64126C165.76 4.54554 164.037 3.99846 161.884 4C159.513 4 157.607 4.65388 156.165 5.96161C154.742 7.22624 153.951 9.05137 154.002 10.9504C153.977 12.6038 154.69 14.1832 155.948 15.2613C157.239 16.4204 158.941 17 161.052 17C163.42 17 165.336 16.3345 166.801 15.0036C168.266 13.6726 168.999 11.9571 168.999 9.85697C169.037 8.22802 168.319 6.67243 167.053 5.64126Z" fill="white"/>
<path d="M178.631 8H191L181.374 57H169L178.631 8Z" fill="white"/>
<path d="M200.631 8H213L203.374 57H191L200.631 8Z" fill="white"/>
<path d="M34.0528 21.2554C32.253 21.0485 30.43 21.1874 28.683 21.6645L32.9217 0L5.6087 22.2676L5.47058 22.3787C2.43218 24.8684 0.500329 28.4439 0.0913343 32.3348C-0.801636 40.4865 4.95385 47.8341 12.9501 48.7446C14.7497 48.9513 16.5726 48.8132 18.3198 48.3378L14.0669 70L41.5275 47.6118C44.5682 45.1237 46.5013 41.5475 46.9092 37.6557C47.7997 29.5135 42.0419 22.1659 34.0528 21.2554Z" fill="#28D8A1"/>
</g>
<defs>
<clipPath id="clip0">
<rect width="213" height="70" fill="white"/>
</clipPath>
</defs>
</svg>
