<svg width="213" height="70" viewBox="0 0 213 70" fill="none" xmlns="http://www.w3.org/2000/svg">
<path d="M34.0528 21.2554C32.253 21.0485 30.43 21.1874 28.683 21.6645L32.9217 0L5.6087 22.2676L5.47058 22.3787C2.43218 24.8684 0.500329 28.4439 0.0913344 32.3348C-0.801636 40.4865 4.95385 47.8341 12.9501 48.7446C14.7497 48.9513 16.5726 48.8132 18.3198 48.3378L14.0669 70L41.5275 47.6118C44.5682 45.1237 46.5013 41.5475 46.9092 37.6557C47.7997 29.5135 42.0419 22.1659 34.0528 21.2554Z" fill="url(#paint0_linear_63_121)"/>
<path d="M66.664 57.008C63.8106 56.3485 61.5893 55.5118 60 54.498L64.5742 45.7093C66.3885 46.7968 68.3547 47.6098 70.4085 48.1216C72.5699 48.7034 74.7979 49.003 77.0366 49.0131C80.8815 49.0131 82.804 48.1542 82.804 46.4363C82.804 45.7308 82.3513 45.2127 81.4458 44.8822C80.5404 44.5516 79.093 44.2338 77.1036 43.9287C74.8957 43.552 72.7144 43.0337 70.5735 42.3769C68.8712 41.8264 67.3335 40.8613 66.0997 39.5689C64.8245 38.2468 64.1868 36.3963 64.1868 34.0173C64.1868 29.8761 65.9658 26.6708 69.5238 24.4015C73.0817 22.1323 77.6878 20.9984 83.342 20.9999C85.8374 20.9931 88.3266 21.2472 90.7688 21.758C92.9256 22.1881 95.0192 22.8881 97 23.8414L92.5478 32.6253C89.5429 30.8184 85.9858 29.915 81.8762 29.915C79.9299 29.915 78.4825 30.1685 77.534 30.6754C76.5855 31.1823 76.1073 31.8323 76.0993 32.6253C76.0993 33.3308 76.552 33.8481 77.4575 34.177C78.3629 34.506 79.8597 34.8699 81.948 35.2688C84.1152 35.6144 86.2533 36.122 88.3442 36.7872C90.0361 37.356 91.5612 38.3319 92.7845 39.6285C94.0438 40.9507 94.6735 42.7575 94.6735 45.049C94.6735 49.1903 92.8841 52.3836 89.3054 54.6291C85.7267 56.8745 81.1525 57.998 75.5828 57.9999C72.5816 58.0112 69.589 57.6785 66.664 57.008Z" fill="white"/>
<path d="M144 21.5917L134.237 70H121.634L124.745 54.6066C122.049 56.7565 118.865 57.8307 115.192 57.8291C112.576 57.8398 110.003 57.1706 107.729 55.888C105.375 54.5641 103.436 52.6212 102.125 50.2736C100.708 47.8184 100 44.9242 100 41.591C100 37.7326 100.877 34.2348 102.632 31.0978C104.293 28.0497 106.743 25.4952 109.729 23.6965C112.674 21.911 116.063 20.9773 119.514 21.0004C125.131 21.0004 128.934 22.8644 130.923 26.5915L131.983 21.5917H144ZM114.568 45.9643C115.783 47.173 117.453 47.7765 119.576 47.7749C122.095 47.7749 124.151 46.8534 125.745 45.0104C127.338 43.1674 128.136 40.7779 128.138 37.8417C128.138 35.7345 127.529 34.0679 126.312 32.8419C125.095 31.6159 123.425 31.0013 121.304 30.9981C118.785 30.9981 116.729 31.9196 115.135 33.7626C113.541 35.6056 112.744 38.0173 112.742 40.9977C112.744 43.1033 113.352 44.7589 114.568 45.9643Z" fill="white"/>
<path d="M146 57H158.725L166 21H153.272L146 57Z" fill="white"/>
<path d="M167.053 5.64126C165.76 4.54554 164.037 3.99846 161.884 4C159.513 4 157.607 4.65388 156.165 5.96161C154.742 7.22624 153.951 9.05137 154.002 10.9504C153.977 12.6038 154.69 14.1832 155.948 15.2613C157.239 16.4204 158.941 17 161.052 17C163.42 17 165.336 16.3345 166.801 15.0036C168.266 13.6726 168.999 11.9571 168.999 9.85697C169.037 8.22802 168.319 6.67243 167.053 5.64126Z" fill="white"/>
<path d="M178.631 8H191L181.374 57H169L178.631 8Z" fill="white"/>
<path d="M200.631 8H213L203.374 57H191L200.631 8Z" fill="white"/>
<defs>
<linearGradient id="paint0_linear_63_121" x1="23.5" y1="0" x2="23.5" y2="70" gradientUnits="userSpaceOnUse">
<stop stop-color="#ABF1D9"/>
<stop offset="1" stop-color="#32B78E"/>
</linearGradient>
</defs>
</svg>
