<?xml version="1.0" encoding="UTF-8"?>
<svg width="213px" height="70px" viewBox="0 0 213 70" version="1.1" xmlns="http://www.w3.org/2000/svg" xmlns:xlink="http://www.w3.org/1999/xlink">
    <!-- Generator: sketchtool 59.1 (101010) - https://sketch.com -->
    <title>1FAEC115-978F-4027-B052-372D96EFF432</title>
    <desc>Created with sketchtool.</desc>
    <g id="Page-1" stroke="none" stroke-width="1" fill="none" fill-rule="evenodd">
        <g id="Me" transform="translate(-80.000000, -96.000000)">
            <g id="logo_white" transform="translate(68.000000, 83.000000)">
                <rect id="Rectangle" x="0" y="0" width="238" height="95"></rect>
                <path d="M78.6640171,70.008091 C75.8106286,69.3486047 73.5892896,68.5119311 72,67.4980702 L76.574189,58.7094217 C78.3884689,59.7969588 80.3546754,60.6099197 82.4084917,61.1217114 C84.5698817,61.7034899 86.797874,62.003159 89.0366421,62.0132098 C92.8815432,62.0132098 94.8039938,61.1542885 94.8039938,59.4364458 C94.8039938,58.7308749 94.3512774,58.2128206 93.4458446,57.8822828 C92.5404119,57.5517451 91.0929947,57.2339204 89.1035931,56.9288086 C86.8956738,56.5521027 84.7144375,56.0337662 82.5734781,55.3770294 C80.8711858,54.82649 79.333522,53.8613668 78.0997157,52.5690479 C76.8244582,51.246897 76.1868295,49.3963624 76.1868295,47.0174443 C76.1868295,42.876188 77.9658136,39.6709256 81.5237818,37.401657 C85.08175,35.1323884 89.6878204,33.9985487 95.341993,34 C97.8373646,33.9932138 100.32658,34.2472748 102.768773,34.7581498 C104.925579,35.1881874 107.019236,35.8881783 109,36.8414909 L104.547758,45.625372 C101.542932,43.8185384 97.9857611,42.9151216 93.876244,42.9151216 C91.9298824,42.9151216 90.4824652,43.1685868 89.5339925,43.6755172 C88.5855198,44.1824477 88.1072983,44.8323993 88.0993279,45.625372 C88.0993279,46.3309429 88.5520443,46.8482026 89.4574771,47.1771512 C90.3629098,47.5060998 91.8597432,47.8700092 93.9479773,48.2688792 C96.1152071,48.6145 98.2533039,49.1220664 100.34419,49.7872869 C102.036078,50.3561316 103.561181,51.3320495 104.784477,52.62864 C106.043794,53.9507909 106.673452,55.7576245 106.673452,58.0491408 C106.673452,62.1903971 104.884107,65.3837411 101.305416,67.6291729 C97.7267244,69.8746046 93.1525354,70.998115 87.5828486,71 C84.5815892,71.0113587 81.5889556,70.6786318 78.6640171,70.008091 L78.6640171,70.008091 Z" id="Path" fill="#FFFFFF" fill-rule="nonzero"></path>
                <path d="M156,34.5917169 L146.237111,83 L133.633892,83 L136.744616,67.6066406 C134.048655,69.7565378 130.864549,70.8306955 127.192299,70.8291135 C124.576236,70.8398095 122.003007,70.1705605 119.728954,68.8880363 C117.375195,67.5640677 115.435875,65.6211757 114.124864,63.2736246 C112.708288,60.8184071 112,57.924193 112,54.5909821 C112,50.7325572 112.877384,47.2348214 114.632151,44.0977749 C116.293498,41.0497035 118.743119,38.495153 121.729389,36.696528 C124.673699,34.9110343 128.06271,33.9773382 131.513813,34.0004177 C137.130665,34.0004177 140.933725,35.8644118 142.922993,39.5915332 L143.983032,34.5917169 L156,34.5917169 Z M126.567762,58.9643383 C127.783337,60.1729634 129.452759,60.7764849 131.576028,60.7749061 C134.094917,60.7749061 136.151186,59.8534054 137.744834,58.0104103 C139.338482,56.1674152 140.136103,53.7778495 140.137698,50.8417131 C140.137698,48.734529 139.529113,47.0679236 138.311943,45.8418968 C137.094772,44.61587 135.42535,44.0012747 133.303676,43.9981107 C130.784787,43.9981107 128.728519,44.9196083 127.134871,46.7626034 C125.541223,48.6055985 124.743601,51.0173118 124.742006,53.9977433 C124.743601,56.1033455 125.352186,57.7588771 126.567762,58.9643383 Z" id="Shape" fill="#FFFFFF" fill-rule="nonzero"></path>
                <polygon id="Path" fill="#FFFFFF" fill-rule="nonzero" points="158 70 170.725285 70 178 34 165.272286 34"></polygon>
                <path d="M179.052632,18.6412529 C177.760035,17.5455389 176.037091,16.9984557 173.8838,17 C171.513004,17 169.606735,17.6538722 168.164993,18.9616099 C166.741929,20.2262327 165.950736,22.0513673 166.002379,23.9503587 C165.97665,25.6037791 166.68956,27.1831517 167.948265,28.2612504 C169.239308,29.4204168 170.940502,30 173.051846,30 C175.419535,30 177.335902,29.334524 178.800948,28.0035719 C180.265994,26.6726199 180.998517,24.9570846 180.998517,22.8569661 C181.037147,21.2280121 180.319119,19.672423 179.052632,18.6412529 L179.052632,18.6412529 Z" id="Path" fill="#FFFFFF" fill-rule="nonzero"></path>
                <polygon id="Path" fill="#FFFFFF" fill-rule="nonzero" points="190.631163 21 203 21 193.373533 70 181 70"></polygon>
                <polygon id="Path" fill="#FFFFFF" fill-rule="nonzero" points="212.631163 21 225 21 215.373533 70 203 70"></polygon>
                <path d="M46.052767,34.2554054 C44.2530038,34.0484616 42.4299568,34.1873603 40.6830411,34.664527 L44.9216718,13 L17.6086979,35.2675676 L17.4705852,35.3787162 C14.432182,37.8684021 12.5003289,41.4439345 12.0913343,45.3347973 C11.1983643,53.4864865 16.9538533,60.8341216 24.9501014,61.7445946 C26.749732,61.9513045 28.572584,61.8132235 30.3198273,61.3378378 L26.0669092,83 L53.5275207,60.6118243 C56.5682247,58.1237014 58.5012964,54.5474967 58.9091529,50.6557432 C59.7997416,42.5135135 54.0418714,35.1658784 46.052767,34.2554054 Z" id="Path" fill="#FFFFFF" fill-rule="nonzero"></path>
            </g>
        </g>
    </g>
</svg>